<svg xmlns="http://www.w3.org/2000/svg" viewBox="0 0 512 512">
  <defs>
    <linearGradient id="mainGrad" x1="0%" y1="0%" x2="100%" y2="100%">
      <stop offset="0%" style="stop-color:#10B981;stop-opacity:1" /> <!-- Emerald 500 -->
      <stop offset="100%" style="stop-color:#059669;stop-opacity:1" /> <!-- Emerald 600 -->
    </linearGradient>
    <filter id="shadow" x="-20%" y="-20%" width="140%" height="140%">
      <feDropShadow dx="0" dy="4" stdDeviation="4" flood-color="#000000" flood-opacity="0.3"/>
    </filter>
  </defs>
  
  <!-- Background Container -->
  <rect x="0" y="0" width="512" height="512" rx="128" fill="#111827"/>
  
  <!-- Main Circle -->
  <circle cx="256" cy="256" r="180" fill="url(#mainGrad)" filter="url(#shadow)"/>
  
  <!-- Icon: P2P Arrows -->
  <g transform="translate(256, 256) scale(0.7) translate(-256, -256)" fill="white">
    <!-- Top Right Arrow -->
    <path d="M360 140 L360 260 L320 260 L320 188 L180 328 L152 300 L292 160 L220 160 L220 120 L340 120 C351 120 360 129 360 140 Z"/>
    <!-- Bottom Left Arrow -->
    <path d="M152 372 L152 252 L192 252 L192 324 L332 184 L360 212 L220 352 L292 352 L292 392 L172 392 C161 392 152 383 152 372 Z"/>
  </g>
</svg>
